{
  "source": "C:\\Users\\Peter\\Desktop\\stuff\\MIUN\\quantitative_research\\video_compression\\videos\\BVI-HD\\BVI-HD_CDVL_videos\\ORIG\\PaintingTilting_1920x1080_60fps.mp4",
  "output": "C:\\Users\\Peter\\Desktop\\stuff\\MIUN\\quantitative_research\\video_compression\\compressed_videos\\BVI-HD\\vp9\\2.5\\PaintingTilting_1920x1080_60fps_vp9.webm",
  "codec": "vp9",
  "ok": "Input #0, mov,mp4,m4a,3gp,3g2,mj2, from 'C:\\Users\\Peter\\Desktop\\stuff\\MIUN\\quantitative_research\\video_compression\\videos\\BVI-HD\\BVI-HD_CDVL_videos\\ORIG\\PaintingTilting_1920x1080_60fps.mp4':\n  Metadata:\n    major_brand     : isom\n    minor_version   : 512\n    compatible_brands: isomiso2avc1mp41\n    encoder         : Lavf54.28.101\n  Duration: 00:00:05.00, start: 0.000000, bitrate: 667707 kb/s\n  Stream #0:0[0x1](und): Video: h264 (High 4:4:4 Predictive) (avc1 / 0x31637661), yuv420p(progressive), 1920x1080, 667702 kb/s, 60 fps, 60 tbr, 60 tbn (default)\n    Metadata:\n      handler_name    : VideoHandler\n      vendor_id       : [0][0][0][0]\n[out#0/webm @ 0000022963059100] Codec AVOption b:a (set bitrate (in bits/s)) has not been used for any stream. The most likely reason is either wrong type (e.g. a video option with no video streams) or that it is a private option of some decoder which was not actually used for any stream.\nStream mapping:\n  Stream #0:0 -> #0:0 (h264 (native) -> vp9 (libvpx-vp9))\nPress [q] to stop, [?] for help\n[libvpx-vp9 @ 0000022963c500c0] v1.15.2-100-g40561f514\nOutput #0, webm, to 'C:\\Users\\Peter\\Desktop\\stuff\\MIUN\\quantitative_research\\video_compression\\compressed_videos\\BVI-HD\\vp9\\2.5\\PaintingTilting_1920x1080_60fps_vp9.webm':\n  Metadata:\n    major_brand     : isom\n    minor_version   : 512\n    compatible_brands: isomiso2avc1mp41\n    encoder         : Lavf62.3.100\n  Stream #0:0(und): Video: vp9, yuv420p(tv, progressive), 1920x1080, q=2-31, 2500 kb/s, 60 fps, 1k tbn (default)\n    Metadata:\n      encoder         : Lavc62.11.100 libvpx-vp9\n      handler_name    : VideoHandler\n      vendor_id       : [0][0][0][0]\n    Side data:\n      cpb: bitrate max/min/avg: 0/0/0 buffer size: 2500000 vbv_delay: N/A\nframe=    0 fps=0.0 q=0.0 size=       0KiB time=N/A bitrate=N/A speed=N/A elapsed=0:00:00.51    \nframe=    3 fps=2.9 q=60.0 size=       1KiB time=00:00:00.05 bitrate= 101.3kbits/s speed=0.0482x elapsed=0:00:01.03    \nframe=    8 fps=5.1 q=39.0 size=       1KiB time=00:00:00.13 bitrate=  38.0kbits/s speed=0.0848x elapsed=0:00:01.57    \nframe=   12 fps=5.8 q=38.0 size=       1KiB time=00:00:00.20 bitrate=  25.3kbits/s speed=0.0962x elapsed=0:00:02.07    \nframe=   15 fps=5.7 q=37.0 size=       1KiB time=00:00:00.25 bitrate=  20.3kbits/s speed=0.0951x elapsed=0:00:02.62    \nframe=   19 fps=6.0 q=37.0 size=       1KiB time=00:00:00.31 bitrate=  16.0kbits/s speed= 0.1x elapsed=0:00:03.15    \nframe=   22 fps=6.0 q=37.0 size=       1KiB time=00:00:00.36 bitrate=  13.8kbits/s speed=0.0993x elapsed=0:00:03.69    \nframe=   25 fps=5.9 q=29.0 size=       1KiB time=00:00:00.41 bitrate=  12.2kbits/s speed=0.0983x elapsed=0:00:04.24    \nframe=   29 fps=6.1 q=36.0 size=       1KiB time=00:00:00.48 bitrate=  10.5kbits/s speed=0.102x elapsed=0:00:04.76    \nframe=   33 fps=6.2 q=37.0 size=       1KiB time=00:00:00.55 bitrate=   9.2kbits/s speed=0.103x elapsed=0:00:05.31    \nframe=   36 fps=6.1 q=38.0 size=       1KiB time=00:00:00.60 bitrate=   8.4kbits/s speed=0.102x elapsed=0:00:05.86    \nframe=   40 fps=6.2 q=35.0 size=       1KiB time=00:00:00.66 bitrate=   7.6kbits/s speed=0.104x elapsed=0:00:06.41    \nframe=   44 fps=6.3 q=35.0 size=       1KiB time=00:00:00.73 bitrate=   6.9kbits/s speed=0.105x elapsed=0:00:06.95    \nframe=   48 fps=6.4 q=35.0 size=       1KiB time=00:00:00.80 bitrate=   6.3kbits/s speed=0.107x elapsed=0:00:07.48    \nframe=   52 fps=6.5 q=35.0 size=       1KiB time=00:00:00.86 bitrate=   5.8kbits/s speed=0.108x elapsed=0:00:08.03    \nframe=   55 fps=6.4 q=35.0 size=       1KiB time=00:00:00.91 bitrate=   5.5kbits/s speed=0.107x elapsed=0:00:08.56    \nframe=   59 fps=6.5 q=36.0 size=       1KiB time=00:00:00.98 bitrate=   5.1kbits/s speed=0.108x elapsed=0:00:09.08    \nframe=   62 fps=6.5 q=36.0 size=       1KiB time=00:00:01.03 bitrate=   4.9kbits/s speed=0.108x elapsed=0:00:09.59    \nframe=   65 fps=6.4 q=35.0 size=       1KiB time=00:00:01.08 bitrate=   4.7kbits/s speed=0.107x elapsed=0:00:10.13    \nframe=   69 fps=6.5 q=36.0 size=       1KiB time=00:00:01.15 bitrate=   4.4kbits/s speed=0.108x elapsed=0:00:10.67    \nframe=   72 fps=6.4 q=37.0 size=       1KiB time=00:00:01.20 bitrate=   4.2kbits/s speed=0.107x elapsed=0:00:11.20    \nframe=   75 fps=6.4 q=36.0 size=       1KiB time=00:00:01.25 bitrate=   4.1kbits/s speed=0.107x elapsed=0:00:11.72    \nframe=   78 fps=6.4 q=35.0 size=       1KiB time=00:00:01.30 bitrate=   3.9kbits/s speed=0.106x elapsed=0:00:12.26    \nframe=   81 fps=6.3 q=36.0 size=       1KiB time=00:00:01.35 bitrate=   3.8kbits/s speed=0.105x elapsed=0:00:12.83    \nframe=   84 fps=6.3 q=36.0 size=       1KiB time=00:00:01.40 bitrate=   3.6kbits/s speed=0.105x elapsed=0:00:13.36    \nframe=   87 fps=6.3 q=34.0 size=       1KiB time=00:00:01.45 bitrate=   3.5kbits/s speed=0.104x elapsed=0:00:13.91    \nframe=   90 fps=6.2 q=35.0 size=       1KiB time=00:00:01.50 bitrate=   3.4kbits/s speed=0.104x elapsed=0:00:14.43    \nframe=   94 fps=6.3 q=36.0 size=       1KiB time=00:00:01.56 bitrate=   3.2kbits/s speed=0.105x elapsed=0:00:14.96    \nframe=   96 fps=6.2 q=36.0 size=       1KiB time=00:00:01.60 bitrate=   3.2kbits/s speed=0.103x elapsed=0:00:15.48    \nframe=  100 fps=6.2 q=36.0 size=       1KiB time=00:00:01.66 bitrate=   3.0kbits/s speed=0.104x elapsed=0:00:16.00    \nframe=  103 fps=6.2 q=36.0 size=       1KiB time=00:00:01.71 bitrate=   2.9kbits/s speed=0.104x elapsed=0:00:16.54    \nframe=  107 fps=6.3 q=36.0 size=       1KiB time=00:00:01.78 bitrate=   2.8kbits/s speed=0.105x elapsed=0:00:17.06    \nframe=  110 fps=6.3 q=38.0 size=       1KiB time=00:00:01.83 bitrate=   2.8kbits/s speed=0.104x elapsed=0:00:17.59    \nframe=  113 fps=6.2 q=36.0 size=       1KiB time=00:00:01.88 bitrate=   2.7kbits/s speed=0.104x elapsed=0:00:18.14    \nframe=  117 fps=6.3 q=36.0 size=       1KiB time=00:00:01.95 bitrate=   2.6kbits/s speed=0.104x elapsed=0:00:18.66    \nframe=  120 fps=6.2 q=36.0 size=       1KiB time=00:00:02.00 bitrate=   2.5kbits/s speed=0.104x elapsed=0:00:19.20    \nframe=  123 fps=6.2 q=36.0 size=       1KiB time=00:00:02.05 bitrate=   2.5kbits/s speed=0.104x elapsed=0:00:19.73    \nframe=  126 fps=6.2 q=37.0 size=       1KiB time=00:00:02.10 bitrate=   2.4kbits/s speed=0.104x elapsed=0:00:20.26    \nframe=  130 fps=6.3 q=37.0 size=    1024KiB time=00:00:02.16 bitrate=3871.7kbits/s speed=0.104x elapsed=0:00:20.79    \nframe=  133 fps=6.2 q=36.0 size=    1024KiB time=00:00:02.21 bitrate=3784.3kbits/s speed=0.104x elapsed=0:00:21.33    \nframe=  136 fps=6.2 q=37.0 size=    1024KiB time=00:00:02.26 bitrate=3700.9kbits/s speed=0.103x elapsed=0:00:21.90    \nframe=  139 fps=6.2 q=37.0 size=    1024KiB time=00:00:02.31 bitrate=3621.0kbits/s speed=0.103x elapsed=0:00:22.43    \nframe=  142 fps=6.2 q=36.0 size=    1024KiB time=00:00:02.36 bitrate=3544.5kbits/s speed=0.103x elapsed=0:00:22.96    \nframe=  145 fps=6.2 q=36.0 size=    1024KiB time=00:00:02.41 bitrate=3471.1kbits/s speed=0.103x elapsed=0:00:23.50    \nframe=  148 fps=6.2 q=36.0 size=    1024KiB time=00:00:02.46 bitrate=3400.8kbits/s speed=0.103x elapsed=0:00:24.04    \nframe=  151 fps=6.1 q=37.0 size=    1024KiB time=00:00:02.51 bitrate=3333.2kbits/s speed=0.102x elapsed=0:00:24.58    \nframe=  154 fps=6.1 q=35.0 size=    1024KiB time=00:00:02.56 bitrate=3268.3kbits/s speed=0.102x elapsed=0:00:25.11    \nframe=  157 fps=6.1 q=36.0 size=    1024KiB time=00:00:02.61 bitrate=3205.8kbits/s speed=0.102x elapsed=0:00:25.63    \nframe=  160 fps=6.1 q=36.0 size=    1024KiB time=00:00:02.66 bitrate=3145.7kbits/s speed=0.102x elapsed=0:00:26.15    \nframe=  163 fps=6.1 q=37.0 size=    1024KiB time=00:00:02.71 bitrate=3087.8kbits/s speed=0.102x elapsed=0:00:26.69    \nframe=  166 fps=6.1 q=36.0 size=    1024KiB time=00:00:02.76 bitrate=3032.0kbits/s speed=0.102x elapsed=0:00:27.23    \nframe=  169 fps=6.1 q=37.0 size=    1024KiB time=00:00:02.81 bitrate=2978.2kbits/s speed=0.101x elapsed=0:00:27.75    \nframe=  172 fps=6.1 q=36.0 size=    1024KiB time=00:00:02.86 bitrate=2926.3kbits/s speed=0.101x elapsed=0:00:28.28    \nframe=  175 fps=6.1 q=37.0 size=    1024KiB time=00:00:02.91 bitrate=2876.1kbits/s speed=0.101x elapsed=0:00:28.80    \nframe=  179 fps=6.1 q=35.0 size=    1024KiB time=00:00:02.98 bitrate=2811.8kbits/s speed=0.102x elapsed=0:00:29.35    \nframe=  182 fps=6.1 q=36.0 size=    1024KiB time=00:00:03.03 bitrate=2765.5kbits/s speed=0.101x elapsed=0:00:29.90    \nframe=  186 fps=6.1 q=36.0 size=    1024KiB time=00:00:03.08 bitrate=2720.6kbits/s speed=0.101x elapsed=0:00:30.43    \nframe=  189 fps=6.1 q=36.0 size=    1024KiB time=00:00:03.15 bitrate=2663.1kbits/s speed=0.102x elapsed=0:00:30.97    \nframe=  192 fps=6.1 q=35.0 size=    1024KiB time=00:00:03.20 bitrate=2621.4kbits/s speed=0.102x elapsed=0:00:31.50    \nframe=  196 fps=6.1 q=37.0 size=    1024KiB time=00:00:03.26 bitrate=2567.9kbits/s speed=0.102x elapsed=0:00:32.07    \nframe=  199 fps=6.1 q=37.0 size=    1024KiB time=00:00:03.31 bitrate=2529.2kbits/s speed=0.102x elapsed=0:00:32.61    \nframe=  202 fps=6.1 q=35.0 size=    1024KiB time=00:00:03.36 bitrate=2491.7kbits/s speed=0.102x elapsed=0:00:33.14    \nframe=  206 fps=6.1 q=37.0 size=    1024KiB time=00:00:03.43 bitrate=2443.3kbits/s speed=0.102x elapsed=0:00:33.67    \nframe=  209 fps=6.1 q=37.0 size=    1024KiB time=00:00:03.48 bitrate=2408.2kbits/s speed=0.102x elapsed=0:00:34.21    \nframe=  212 fps=6.1 q=29.0 size=    1024KiB time=00:00:03.53 bitrate=2374.1kbits/s speed=0.102x elapsed=0:00:34.71    \nframe=  215 fps=6.1 q=36.0 size=    1024KiB time=00:00:03.58 bitrate=2341.0kbits/s speed=0.102x elapsed=0:00:35.25    \nframe=  219 fps=6.1 q=36.0 size=    1024KiB time=00:00:03.65 bitrate=2298.2kbits/s speed=0.102x elapsed=0:00:35.76    \nframe=  223 fps=6.1 q=37.0 size=    1024KiB time=00:00:03.71 bitrate=2257.0kbits/s speed=0.102x elapsed=0:00:36.29    \nframe=  226 fps=6.1 q=36.0 size=    1024KiB time=00:00:03.76 bitrate=2227.1kbits/s speed=0.102x elapsed=0:00:36.82    \nframe=  229 fps=6.1 q=37.0 size=    1024KiB time=00:00:03.81 bitrate=2197.9kbits/s speed=0.102x elapsed=0:00:37.37    \nframe=  233 fps=6.1 q=36.0 size=    1024KiB time=00:00:03.88 bitrate=2160.2kbits/s speed=0.102x elapsed=0:00:37.90    \nframe=  236 fps=6.1 q=28.0 size=    1024KiB time=00:00:03.93 bitrate=2132.7kbits/s speed=0.102x elapsed=0:00:38.46    \nframe=  239 fps=6.1 q=36.0 size=    1024KiB time=00:00:03.98 bitrate=2105.9kbits/s speed=0.102x elapsed=0:00:38.98    \nframe=  243 fps=6.2 q=36.0 size=    1024KiB time=00:00:04.05 bitrate=2071.3kbits/s speed=0.103x elapsed=0:00:39.49    \nframe=  247 fps=6.2 q=37.0 size=    1024KiB time=00:00:04.11 bitrate=2037.7kbits/s speed=0.103x elapsed=0:00:40.03    \nframe=  250 fps=6.2 q=36.0 size=    1024KiB time=00:00:04.16 bitrate=2013.3kbits/s speed=0.103x elapsed=0:00:40.55    \nframe=  254 fps=6.2 q=36.0 size=    1024KiB time=00:00:04.23 bitrate=1981.6kbits/s speed=0.103x elapsed=0:00:41.08    \nframe=  257 fps=6.2 q=29.0 size=    1024KiB time=00:00:04.28 bitrate=1958.4kbits/s speed=0.103x elapsed=0:00:41.59    \nframe=  261 fps=6.2 q=36.0 size=    2048KiB time=00:00:04.35 bitrate=3856.8kbits/s speed=0.103x elapsed=0:00:42.11    \nframe=  264 fps=6.2 q=36.0 size=    2048KiB time=00:00:04.40 bitrate=3813.0kbits/s speed=0.103x elapsed=0:00:42.62    \nframe=  268 fps=6.2 q=37.0 size=    2048KiB time=00:00:04.46 bitrate=3756.1kbits/s speed=0.104x elapsed=0:00:43.14    \nframe=  271 fps=6.2 q=36.0 size=    2048KiB time=00:00:04.51 bitrate=3714.5kbits/s speed=0.103x elapsed=0:00:43.66    \nframe=  275 fps=6.2 q=36.0 size=    2048KiB time=00:00:04.58 bitrate=3660.5kbits/s speed=0.104x elapsed=0:00:44.19    \nframe=  276 fps=6.2 q=36.0 size=    2048KiB time=00:00:04.60 bitrate=3647.2kbits/s speed=0.103x elapsed=0:00:44.71    \nframe=  276 fps=6.1 q=36.0 size=    2048KiB time=00:00:04.60 bitrate=3647.2kbits/s speed=0.102x elapsed=0:00:45.25    \nframe=  276 fps=6.0 q=36.0 size=    2048KiB time=00:00:04.60 bitrate=3647.2kbits/s speed= 0.1x elapsed=0:00:45.80    \nframe=  276 fps=6.0 q=36.0 size=    2048KiB time=00:00:04.60 bitrate=3647.2kbits/s speed=0.0993x elapsed=0:00:46.33    \nframe=  276 fps=5.9 q=36.0 size=    2048KiB time=00:00:04.60 bitrate=3647.2kbits/s speed=0.0982x elapsed=0:00:46.86    \nframe=  276 fps=5.8 q=36.0 size=    2048KiB time=00:00:04.60 bitrate=3647.2kbits/s speed=0.0971x elapsed=0:00:47.36    \nframe=  276 fps=5.8 q=36.0 size=    2048KiB time=00:00:04.60 bitrate=3647.2kbits/s speed=0.0961x elapsed=0:00:47.88    \n[out#0/webm @ 0000022963059100] video:2597KiB audio:0KiB subtitle:0KiB other streams:0KiB global headers:0KiB muxing overhead: 0.107177%\nframe=  300 fps=6.2 q=36.0 Lsize=    2600KiB time=00:00:05.00 bitrate=4259.2kbits/s speed=0.103x elapsed=0:00:48.31    \n",
  "seconds": 48.65286946296692,
  "probe_out": {}
}